<?xml version="1.0" standalone="no"?>
<!DOCTYPE svg PUBLIC "-//W3C//DTD SVG 20010904//EN"
 "http://www.w3.org/TR/2001/REC-SVG-20010904/DTD/svg10.dtd">
<svg version="1.0" xmlns="http://www.w3.org/2000/svg"
 width="512.000000pt" height="512.000000pt" viewBox="0 0 512.000000 512.000000"
 preserveAspectRatio="xMidYMid meet">
<metadata>
Created by potrace 1.11, written by Peter Selinger 2001-2013
</metadata>
<g transform="translate(0.000000,512.000000) scale(0.100000,-0.100000)"
fill="#000000" stroke="none">
<path d="M1938 4475 c-2 -2 -127 -6 -278 -9 -273 -7 -320 -9 -560 -21 -266
-14 -389 -24 -455 -37 -27 -5 -61 -11 -75 -14 -36 -7 -143 -58 -193 -92 -64
-45 -145 -130 -181 -192 -44 -75 -102 -234 -121 -331 -26 -133 -32 -178 -50
-404 -16 -199 -20 -352 -20 -805 0 -452 6 -688 20 -810 2 -19 7 -75 10 -125
17 -241 67 -442 147 -597 90 -175 270 -290 503 -323 22 -3 51 -8 65 -10 306
-54 2365 -81 3019 -40 36 2 131 7 211 10 434 18 550 35 685 101 93 44 203 146
256 234 49 83 102 228 125 345 2 11 6 31 9 45 10 47 28 211 40 365 27 352 27
1273 0 1590 -2 22 -6 69 -9 105 -16 201 -30 284 -71 425 -41 144 -105 262
-180 336 -94 93 -221 163 -331 183 -110 21 -341 37 -709 52 -82 3 -195 7 -250
10 -115 5 -1602 13 -1607 9z"/>
</g>
</svg>
